<svg xmlns="http://www.w3.org/2000/svg" xmlns:xlink="http://www.w3.org/1999/xlink" viewBox="0 0 145 145"><defs><style>.cls-1{fill:none;}.cls-2{fill:#fc8024;}.cls-3{fill:#fff;}.cls-4{clip-path:url(#clip-path);}</style><clipPath id="clip-path"><rect class="cls-1" y="11.52" width="145" height="121.97"/></clipPath></defs><title>2_1</title><g id="图层_2" data-name="图层 2"><g id="图层_1-2" data-name="图层 1"><rect class="cls-1" width="145" height="145"/><path class="cls-2" d="M130.09,69.9a15.55,15.55,0,0,1-15.5,15.5H68.08a15.5,15.5,0,0,1,0-31h46.5a15.55,15.55,0,0,1,15.5,15.5Zm0,0"/><path class="cls-3" d="M126.37,53.86a1.92,1.92,0,0,1-1.94-1.94V15.41H81.8V32.85a1.94,1.94,0,0,1-3.88,0V13.48a1.92,1.92,0,0,1,1.94-1.94h46.5a1.92,1.92,0,0,1,1.94,1.94V51.92a1.92,1.92,0,0,1-1.94,1.94Zm0,0"/><path class="cls-3" d="M108.81,34.79H97.19a1.92,1.92,0,0,1-1.94-1.94V13.48a1.92,1.92,0,0,1,1.94-1.94h11.62a1.92,1.92,0,0,1,1.94,1.94V32.85a1.94,1.94,0,0,1-1.94,1.94Zm-9.69-3.87h7.75V15.41H99.12Zm0,0"/><path class="cls-3" d="M103.11,53.93A1.92,1.92,0,0,1,101.18,52V34.83H58.55V52a1.94,1.94,0,1,1-3.87,0V32.89A1.92,1.92,0,0,1,56.61,31h46.5a1.92,1.92,0,0,1,1.94,1.94V52a1.94,1.94,0,0,1-1.94,1.94Zm0,0"/><g class="cls-4"><path class="cls-3" d="M85.56,53.86a1.92,1.92,0,0,1-1.94-1.94V34.79H75.87V51.92a1.94,1.94,0,1,1-3.87,0V32.85a1.92,1.92,0,0,1,1.94-1.94H85.56a1.92,1.92,0,0,1,1.94,1.94V51.92a1.94,1.94,0,0,1-1.94,1.94ZM117.34,115h-52a1.94,1.94,0,0,1,0-3.87h52a1.94,1.94,0,1,1,0,3.87Zm0,0"/><path class="cls-3" d="M36.7,115H30.22a1.91,1.91,0,0,1-1.9-1.59L13.87,36.22H4.3a1.91,1.91,0,0,1-1.9-1.59L0,22.2a1.84,1.84,0,0,1,.43-1.59,1.92,1.92,0,0,1,1.47-.7H24.41a1.92,1.92,0,0,1,1.9,1.59L40.26,98.38H143a1.94,1.94,0,0,1,0,3.87H38.63a1.92,1.92,0,0,1-1.9-1.59L22.78,23.78H4.26l1.63,8.56H15.5a1.91,1.91,0,0,1,1.9,1.59l14.42,77.23H36.7a1.92,1.92,0,0,1,1.94,1.94A1.94,1.94,0,0,1,36.7,115Zm0,0"/><path class="cls-3" d="M51.31,133.29a11.06,11.06,0,1,1,11-11.08,11.06,11.06,0,0,1-11,11.08Zm0-18.25a7.17,7.17,0,1,0,7.17,7.17A7.18,7.18,0,0,0,51.31,115Zm80.49,18.25a11.06,11.06,0,1,1,11-11.08,11.06,11.06,0,0,1-11,11.08Zm0-18.25a7.17,7.17,0,1,0,7.17,7.17,7.18,7.18,0,0,0-7.17-7.17Zm0,0"/><path class="cls-3" d="M138.26,89.74h-88a1.94,1.94,0,1,1,0-3.87h86.26l4.22-32H45.53a1.94,1.94,0,1,1,0-3.87H143a2,2,0,0,1,1.47.66,1.83,1.83,0,0,1,.46,1.51L140.2,88a2,2,0,0,1-1.94,1.71Zm0,0"/></g><path class="cls-3" d="M122.26,71.84h-3.87a1.94,1.94,0,1,1,0-3.87h3.87a1.94,1.94,0,0,1,0,3.87Zm-15.5,0h-3.87a1.94,1.94,0,1,1,0-3.87h3.87a1.94,1.94,0,1,1,0,3.87Zm0,0"/></g></g></svg>