<svg xmlns="http://www.w3.org/2000/svg" viewBox="0 0 543.24 264.46"><defs><style>.cls-1{fill:#d70d19;}</style></defs><title>资源 15</title><g id="图层_2" data-name="图层 2"><g id="图层_1-2" data-name="图层 1"><path class="cls-1" d="M9.41,25.77A16,16,0,0,1,26.13,27l90.59,64.71a11.48,11.48,0,0,1-13.35,18.68L23,53V211.49l78.65-56.18A11.47,11.47,0,1,1,115,174L26.13,237.44a16,16,0,0,1-16.72,1.25A17.7,17.7,0,0,1,0,222.74v-181A17.71,17.71,0,0,1,9.41,25.77Z"/><path class="cls-1" d="M106,193.68a11.49,11.49,0,0,1,11.48,11.48,36.39,36.39,0,0,0,36.35,36.35h332a34.45,34.45,0,0,0,34.41-34.4V57.36A34.45,34.45,0,0,0,485.88,23h-334a34.44,34.44,0,0,0-34.4,34.4,11.48,11.48,0,0,1-23,0A57.42,57.42,0,0,1,151.88,0h334a57.42,57.42,0,0,1,57.36,57.36V207.11a57.42,57.42,0,0,1-57.36,57.35h-332a59.37,59.37,0,0,1-59.31-59.3A11.49,11.49,0,0,1,106,193.68Z"/><path class="cls-1" d="M225.37,106.74v51a39.91,39.91,0,0,0,79.81,0v-51a39.91,39.91,0,1,0-79.81,0Zm21.89,0a18,18,0,1,1,36,0v51a18,18,0,0,1-36,0Z"/><path class="cls-1" d="M418.78,106.74v51a39.91,39.91,0,0,0,79.82,0v-51a39.91,39.91,0,0,0-79.82,0Zm21.89,0a18,18,0,1,1,36,0v51a18,18,0,0,1-36,0Z"/><path class="cls-1" d="M363.3,197.59a11,11,0,0,0,10.95-10.94v-9.29a40,40,0,0,0,29-38.37V77.82a10.95,10.95,0,1,0-21.89,0v.51s0,.11,0,.17V139a18,18,0,1,1-36,0V77.82a10.95,10.95,0,1,0-21.89,0v.92a1.09,1.09,0,0,0,0,.18V139a40,40,0,0,0,29,38.38v9.28A11,11,0,0,0,363.3,197.59Z"/><path class="cls-1" d="M198.34,75.93q8,7.48,9.15,20.59a36.53,36.53,0,0,1-3.24,19.22,27.34,27.34,0,0,1-11.49,12.67l.06.73q7.71,2,12.89,9.56a35.15,35.15,0,0,1,6,17.22q1.64,19.13-7.53,29.61t-27,10.47h-29.6a5.4,5.4,0,0,1-4-1.27q-1.22-1.28-1.5-4.56l-.17-15.12q.09-15.3-.51-99.3,0-3.82,1.27-5.56a5,5,0,0,1,4.25-1.73h27.64Q190.3,68.46,198.34,75.93ZM163,92.26l.08,26.65h9.45q6.45,0,9.77-4.38t2.77-11q-1-11.28-12.34-11.27Zm0,50.44.09,28.56h13.49q6.33,0,9.75-4.22t2.77-11.95Q188,142.7,174.26,142.7Z"/><path class="cls-1" d="M99.6,110.71H24.66a21.93,21.93,0,0,0,0,43.85H99.6a21.93,21.93,0,1,0,0-43.85ZM40.51,146.18h-17L24,138l-.44-19.69h9l-.49,18.82.09,2h8.41l.48.61Zm13.69,0H46l.4-6.42L46,124.09h8.32l-.48,14.85Zm22.06,0H66.35l-6.3-22.09h8.24l.7,4.09,2.25,11h.48l2.87-10.51.7-4.56h8ZM99.6,132.1l3.83-.13.44.56-.49,5.81-4.31-.13H95.9l-.05.73.05,1.12h3.47l6.17-.21.44.51-.49,5.82H88l.4-6.42L88,124.09H105.8l.44.55-.48,5.82-5.94-.26h-3.7l-.05,1.9Z"/></g></g></svg>