<svg id="图层_1" data-name="图层 1" xmlns="http://www.w3.org/2000/svg" xmlns:xlink="http://www.w3.org/1999/xlink" viewBox="0 0 657.17 662.58"><defs><style>.cls-1{fill:none;}.cls-2{fill:#fc8024;}.cls-3{clip-path:url(#clip-path);}.cls-4{fill:#fff;}</style><clipPath id="clip-path" transform="translate(1433.12 -122.34)"><rect class="cls-1" x="-1433.12" y="122.04" width="657.84" height="663.84"/></clipPath></defs><title>6</title><path class="cls-2" d="M-909.76,536.07c42.91,0,78,15.93,78,35.4V677.66c0,19.47-35.11,35.4-78,35.4h-9c-42.91,0-69-15.93-69-35.4V571.47c0-19.47,35.11-35.4,78-35.4Zm0,0" transform="translate(1433.12 -122.34)"/><g class="cls-3"><path class="cls-4" d="M-785.51,784.92h-637.81a9.66,9.66,0,0,1-9.75-9.75v-455a9.66,9.66,0,0,1,9.75-9.75h637.61a9.65,9.65,0,0,1,9.75,9.75V775.17a9.48,9.48,0,0,1-9.55,9.75Zm-628-19.51h618.1V329.87h-618.1Zm0,0" transform="translate(1433.12 -122.34)"/><path class="cls-4" d="M-785.51,329.87h-637.81a9.93,9.93,0,0,1-8.58-5.07,10.09,10.09,0,0,1,.19-9.95l117-187.83a9.57,9.57,0,0,1,8.2-4.68h403.55a9.58,9.58,0,0,1,8.19,4.68l117,187.83a9.61,9.61,0,0,1,.2,9.95,8.43,8.43,0,0,1-8,5.07Zm-620.25-19.5h602.5L-908.2,142h-392.63Zm0,0" transform="translate(1433.12 -122.34)"/></g><path class="cls-4" d="M-1030.69,329.87h-147.45a9.73,9.73,0,0,1-7.43-3.32,9.78,9.78,0,0,1-2.33-7.79l27.12-187.84a9.85,9.85,0,0,1,9.75-8.38h93.23a9.85,9.85,0,0,1,9.75,8.38l27.11,187.84a9.63,9.63,0,0,1-2.34,7.8,10.07,10.07,0,0,1-7.41,3.31Zm-136.14-19.5H-1042L-1066.19,142h-76.45Zm0,0" transform="translate(1433.12 -122.34)"/><path class="cls-4" d="M-1030.69,608.79a8.78,8.78,0,0,1-7-3.12l-29.65-31.4-29.64,31.6a9.48,9.48,0,0,1-7,3.13,9.44,9.44,0,0,1-7-3.13l-29.84-31.6-29.84,31.6a9.74,9.74,0,0,1-7.08,9.45,9.75,9.75,0,0,1-11-4.34,9.76,9.76,0,0,1,1.29-11.75V320.32a9.66,9.66,0,0,1,9.76-9.75h147.45a9.64,9.64,0,0,1,9.75,9.75V599.23a9.27,9.27,0,0,1-6.24,9,15.73,15.73,0,0,1-3.9.58Zm-110.59-58.51a9.43,9.43,0,0,1,7,3.12l29.84,31.4,29.85-31.6a9.44,9.44,0,0,1,7-3.13,9.44,9.44,0,0,1,7,3.13l19.89,21.07V329.87h-127.94V574.46l20.09-21.26a10.32,10.32,0,0,1,7.21-2.92Zm-138.87,146.09h-59.49a9.66,9.66,0,0,1-9.75-9.75V622.44h-12.88A9.76,9.76,0,0,1-1371,617a9.94,9.94,0,0,1,1.18-10.33l52.27-65.15a10,10,0,0,1,15.21,0l52.27,65.15a10,10,0,0,1,1.18,10.33,9.75,9.75,0,0,1-8.78,5.46h-12.88v64.18a9.49,9.49,0,0,1-9.55,9.75Zm-49.74-19.51h39.79V612.69a9.66,9.66,0,0,1,9.75-9.75h2.34l-32-39.79-32,39.79h2.34a9.66,9.66,0,0,1,9.75,9.75Zm225.47-411.55a9.66,9.66,0,0,1-9.75-9.75V197.05a9.66,9.66,0,0,1,9.75-9.76,9.67,9.67,0,0,1,9.76,9.76v58.51a9.78,9.78,0,0,1-9.76,9.75Zm0,0" transform="translate(1433.12 -122.34)"/><path class="cls-4" d="M-1104.42,518.09a9.66,9.66,0,0,1-9.75-9.75v-117a9.66,9.66,0,0,1,9.75-9.75,9.66,9.66,0,0,1,9.76,9.75v117a9.66,9.66,0,0,1-9.76,9.75Zm0,0" transform="translate(1433.12 -122.34)"/><path class="cls-4" d="M-855.39,605.14l-62,62a1.38,1.38,0,0,1-2,0l-35.21-35.2a1.41,1.41,0,0,1,0-2l8.56-8.55a1.38,1.38,0,0,1,2,0l25.66,25.66,52.46-52.46a1.41,1.41,0,0,1,2,0l8.55,8.56a1.38,1.38,0,0,1,0,2Zm0,0" transform="translate(1433.12 -122.34)"/></svg>