<svg xmlns="http://www.w3.org/2000/svg" xmlns:xlink="http://www.w3.org/1999/xlink" viewBox="0 0 145.03 145"><defs><style>.cls-1{fill:none;}.cls-2{fill:#fc8024;}.cls-3{fill:#fff;}.cls-4{clip-path:url(#clip-path);}</style><clipPath id="clip-path"><rect class="cls-1" x="0.03" y="4.21" width="145" height="135.1"/></clipPath></defs><title>9</title><g id="图层_2" data-name="图层 2"><g id="图层_1-2" data-name="图层 1"><rect class="cls-1" x="0.03" width="145" height="145"/><path class="cls-2" d="M42.91,63.68A28.74,28.74,0,1,0,71.65,34.94,28.74,28.74,0,0,0,42.91,63.68Zm0,0"/><path class="cls-3" d="M104.42,98.54H52.19A18.5,18.5,0,0,1,33.71,80.06V70.33a2.05,2.05,0,1,1,4.11,0v9.73A14.39,14.39,0,0,0,52.19,94.43h52.23a2,2,0,0,1,2.05,2.05,2.06,2.06,0,0,1-2.05,2.05Zm0,0"/><path class="cls-3" d="M95.46,107.49a1.92,1.92,0,0,1-1.44-.62A2,2,0,0,1,94,104l7.51-7.51L94,88.93A2.06,2.06,0,0,1,96.94,86l9,9a2.09,2.09,0,0,1,.62,1.44,1.93,1.93,0,0,1-.62,1.44l-9,9a1.86,1.86,0,0,1-1.48.7Zm0,0"/><path class="cls-3" d="M107.58,58a2,2,0,0,1-2.05-2.05V46.19A14.39,14.39,0,0,0,91.15,31.82H38.92a2.05,2.05,0,1,1,0-4.11H91.15a18.5,18.5,0,0,1,18.48,18.48v9.73A2.09,2.09,0,0,1,107.58,58Zm0,0"/><path class="cls-3" d="M47.88,40.77a1.93,1.93,0,0,1-1.44-.62l-9-9a2.09,2.09,0,0,1-.62-1.44,1.93,1.93,0,0,1,.62-1.44l9-9a2.06,2.06,0,0,1,2.91,2.92L41.84,29.8l7.51,7.51a2,2,0,0,1,0,2.92,2.41,2.41,0,0,1-1.48.53Zm0,0"/><g class="cls-4"><path class="cls-3" d="M143,33.46h-21.1a2,2,0,0,1-2.05-2.05V16.83a12.61,12.61,0,0,1,25.21,0V31.41A2,2,0,0,1,143,33.46Zm-19.05-4.11h17V16.83a8.5,8.5,0,0,0-17,0Zm0,0"/><path class="cls-3" d="M113.45,139H12.61A12.63,12.63,0,0,1,0,126.38v-6.49a2,2,0,0,1,2.05-2.05H102.9a2,2,0,0,1,2.05,2.05v6.49a8.52,8.52,0,0,0,8.5,8.5,2,2,0,0,1,2.05,2.05,2.06,2.06,0,0,1-2.05,2.05Zm-109.34-17v4.43a8.52,8.52,0,0,0,8.5,8.5h91.52a12.57,12.57,0,0,1-3.33-8.5v-4.43Zm0,0"/></g><path class="cls-3" d="M111.52,139.11H21.27a2,2,0,0,1-2.05-2.05,2.14,2.14,0,0,1,2.05-2.18h91.36a2.07,2.07,0,0,1,2.05,1.93,2,2,0,0,1-1.81,2.14,7,7,0,0,1-1.36.16Zm0,0"/><path class="cls-3" d="M113.32,138.9a12.57,12.57,0,0,1-12.48-12.56V121.9H21.27a2,2,0,0,1-2.05-2.05v-103A12.63,12.63,0,0,1,31.82,4.22h100.8a2.05,2.05,0,1,1,0,4.11,8.52,8.52,0,0,0-8.5,8.5V126.5a12.62,12.62,0,0,1-10.8,12.4Zm-90-21.06H102.9a2,2,0,0,1,2.05,2.05v6.49a8.47,8.47,0,0,0,8.17,8.46,8.53,8.53,0,0,0,6.94-8.33V16.83a12.58,12.58,0,0,1,3.33-8.5H31.82a8.52,8.52,0,0,0-8.5,8.5Zm0,0"/><path class="cls-3" d="M71.67,58a1.82,1.82,0,0,1-1.35-.58L60.91,48a1.94,1.94,0,0,1,2.75-2.75l8,8,8-8a1.94,1.94,0,1,1,2.75,2.75L73,57.49a1.94,1.94,0,0,1-1.35.54ZM84.2,62.87H59.09a1.93,1.93,0,1,1,0-3.87H84.2a1.93,1.93,0,1,1,0,3.87Zm0,9.63H59.09a1.93,1.93,0,1,1,0-3.87H84.2a1.93,1.93,0,1,1,0,3.87Zm0,0"/><path class="cls-3" d="M71.67,82.64a1.92,1.92,0,0,1-1.93-1.93V56.1a1.93,1.93,0,1,1,3.87,0V80.7a1.92,1.92,0,0,1-1.93,1.93Zm0,0"/></g></g></svg>